<svg width="27" height="25" viewBox="0 0 27 25" fill="none" xmlns="http://www.w3.org/2000/svg">
<path id="Vector" d="M12.579 5.18843C14.5684 5.18843 16.443 6.07035 17.8167 7.44901V7.45308C17.8167 6.79103 18.2622 6.29022 18.8778 6.29022H19.0342C20.0056 6.29022 20.2003 7.20634 20.2003 7.49542L20.2043 17.7845C20.1368 18.4587 20.9006 18.8073 21.3249 18.374C22.9739 16.6778 24.9502 9.64525 20.298 5.57361C15.9593 1.77314 10.136 2.40099 7.03992 4.53453C3.74922 6.80813 1.64581 11.8301 3.68896 16.5499C5.92022 21.6957 12.2988 23.2307 16.0952 21.6997C18.0171 20.9237 18.903 23.5181 16.9055 24.3675C13.8949 25.6517 5.50491 25.5206 1.58637 18.7348C-1.06101 14.1509 -0.920948 6.08745 6.10344 1.90995C11.4723 -1.28792 18.5561 -0.401928 22.8265 4.05652C27.289 8.7218 27.0309 17.4506 22.6742 20.8439C20.7011 22.387 17.7711 20.8862 17.7923 18.6379L17.7703 17.905C16.3965 19.2657 14.5684 20.0638 12.579 20.0638C8.64333 20.0638 5.17837 16.598 5.17837 12.6664C5.17837 8.69249 8.64333 5.19006 12.579 5.19006V5.18843ZM17.5293 12.3822C17.3803 9.50193 15.2426 7.76741 12.6596 7.76741H12.5619C9.58469 7.76741 7.93079 10.1127 7.93079 12.7715C7.93079 15.7527 9.92834 17.6354 12.5497 17.6354C15.4755 17.6354 17.3965 15.4946 17.5366 12.962L17.5293 12.3822Z" fill="white"/>
</svg>
