<svg width="25" height="25" viewBox="0 0 25 25" fill="none" xmlns="http://www.w3.org/2000/svg">
<path id="Vector" d="M12.4999 0C5.59633 0 0 5.59635 0 12.5C0 19.4036 5.59633 25 12.4999 25C19.4036 25 24.9999 19.4036 24.9999 12.5C24.9999 5.59635 19.4036 0 12.4999 0ZM9.44006 17.681H6.90882V9.53516H9.44006V17.681ZM8.15882 8.53516C7.35934 8.53516 6.84242 7.96875 6.84242 7.26823C6.84242 6.55338 7.37497 6.00391 8.19137 6.00391C9.00777 6.00391 9.50777 6.55338 9.52339 7.26823C9.52339 7.96875 9.00777 8.53516 8.15882 8.53516ZM18.6848 17.681H16.1536V13.1667C16.1536 12.1159 15.7864 11.4023 14.871 11.4023C14.1718 11.4023 13.7564 11.8854 13.5729 12.3503C13.5051 12.5156 13.4882 12.75 13.4882 12.9831V17.6797H10.9557V12.1328C10.9557 11.1159 10.9231 10.2656 10.8893 9.53385H13.0885L13.2044 10.6654H13.2551C13.5885 10.1341 14.4049 9.35026 15.7708 9.35026C17.4361 9.35026 18.6848 10.4661 18.6848 12.8646V17.681Z" fill="white"/>
</svg>
