<svg width="558" height="141" viewBox="0 0 558 141" fill="none" xmlns="http://www.w3.org/2000/svg">
<path d="M140.356 118.556C140.356 111.203 141.307 103.786 143.209 96.3051C145.237 88.6975 147.709 81.2172 150.625 73.8635C153.669 66.5098 156.901 59.4095 160.325 52.5628C163.748 45.5894 166.982 39.0597 170.024 32.9739V30.5015C168.63 32.023 166.411 34.4319 163.368 37.7284C160.452 40.8982 157.092 44.5117 153.288 48.5689C149.611 52.6262 145.681 56.9371 141.497 61.5014C137.44 65.9392 133.509 70.1867 129.705 74.244C126.029 78.3012 122.732 81.9781 119.816 85.2745C116.899 88.4444 114.744 90.7898 113.35 92.3114C111.955 93.833 110.623 96.1149 109.356 99.1581C108.088 102.074 106.693 105.054 105.172 108.096C103.65 111.14 101.938 113.802 100.037 116.084C98.2614 118.366 96.2328 119.507 93.951 119.507C92.049 119.507 90.5273 119.317 89.3867 118.937C88.3721 118.556 87.6113 117.986 87.1043 117.226C86.5973 116.338 86.2799 115.26 86.1533 113.992C86.0267 112.724 85.9631 111.203 85.9631 109.428C85.9631 100.046 87.2945 90.98 89.9567 82.2312C92.7461 73.3566 95.6628 64.3542 98.7055 55.2253V52.753C98.4516 53.0066 98.0083 53.4503 97.374 54.0843C96.7404 54.5914 96.36 54.9718 96.2328 55.2253C93.1902 59.7898 90.0839 64.7346 86.9141 70.0595C83.7442 75.2579 80.4478 80.4564 77.0248 85.6549C73.6011 90.7262 69.9242 95.6078 65.9936 100.299C62.0635 104.99 57.816 109.174 53.2515 112.851C48.6871 116.401 43.6789 119.254 38.227 121.409C32.9018 123.565 27.0061 124.642 20.5399 124.642C19.1452 124.642 17.2434 124.579 14.8343 124.452C12.5521 124.325 10.27 123.945 7.9877 123.311C5.83229 122.677 3.93044 121.663 2.28222 120.268C0.760732 118.874 0 116.908 0 114.373C0 113.359 0.570554 112.09 1.71168 110.569C2.97955 108.921 4.05722 107.78 4.94476 107.145C6.71982 110.062 8.17791 112.027 9.319 113.041C10.5869 113.929 12.3619 114.373 14.6441 114.373C18.4478 114.373 22.4417 113.802 26.6258 112.661C30.9366 111.393 35.0573 109.745 38.9877 107.716C43.0449 105.687 46.8486 103.342 50.3988 100.679C53.9488 98.0169 56.9284 95.2274 59.3377 92.3114C61.2391 89.7758 63.5216 86.5423 66.1838 82.6116C68.9732 78.5544 71.8893 74.1803 74.9325 69.4895C78.1024 64.6712 81.3352 59.7898 84.6316 54.845C87.9281 49.9002 91.0979 45.2091 94.1412 40.7714C97.3111 36.207 100.227 32.1497 102.889 28.5996C105.552 25.0495 107.835 22.3869 109.736 20.6119C111.511 20.6119 112.842 20.9289 113.73 21.5628C114.618 22.07 115.251 22.8307 115.632 23.845C116.012 24.8593 116.202 26.0639 116.202 27.4585C116.202 28.8532 116.202 30.3113 116.202 31.8328C116.202 37.1579 115.379 42.3562 113.73 47.4278C112.209 52.4994 110.497 57.4442 108.595 62.2622C106.693 66.9532 104.918 71.5811 103.27 76.1454C101.749 80.7103 100.988 85.2109 100.988 89.6486C100.988 89.9024 100.988 90.3458 100.988 90.98C101.114 91.6142 101.178 92.0576 101.178 92.3114C113.096 79.125 123.366 67.714 131.988 58.0782C140.609 48.4421 147.9 40.2643 153.859 33.5444C159.945 26.6978 164.889 21.1824 168.693 16.9984C172.497 12.6876 175.54 9.39106 177.822 7.10883C180.104 4.69984 181.816 3.05158 182.957 2.16405C184.225 1.27653 185.239 0.832764 186 0.832764C187.268 0.832764 188.219 1.21313 188.853 1.97387C189.487 2.7346 189.867 3.62213 189.994 4.63645C190.248 5.65076 190.311 6.72847 190.184 7.86955C190.184 9.01065 190.184 9.96161 190.184 10.7224C190.184 16.0475 189.17 21.4994 187.141 27.0782C185.239 32.5301 182.767 38.1722 179.724 44.0045C176.808 49.7101 173.575 55.5423 170.024 61.5014C166.601 67.3336 163.368 73.3566 160.325 79.569C157.409 85.7815 154.936 92.1212 152.908 98.5875C151.006 104.927 150.055 111.456 150.055 118.177C150.055 121.6 150.118 124.135 150.246 125.783C150.372 127.305 150.753 128.573 151.386 129.588C152.02 130.728 153.034 131.869 154.429 133.011C155.824 134.278 157.79 136.244 160.325 138.906C157.409 140.554 154.556 141.189 151.767 140.808C149.104 140.554 146.758 139.477 144.73 137.575C142.828 135.673 141.433 133.074 140.546 129.778C139.658 126.481 139.595 122.741 140.356 118.556ZM181.055 117.796C181.055 115.894 181.625 113.231 182.767 109.808C183.908 106.258 185.366 102.455 187.141 98.3973C189.043 94.34 191.135 90.2192 193.417 86.0353C195.826 81.8508 198.235 78.0474 200.644 74.6244C203.053 71.2007 205.335 68.4112 207.491 66.256C209.646 64.1006 211.548 63.0229 213.196 63.0229C216.746 63.0229 218.521 64.7346 218.521 68.1581C218.521 69.6791 218.204 70.9475 217.571 71.9615C217.063 72.9762 216.43 73.9265 215.669 74.8146C214.908 75.702 214.083 76.5894 213.196 77.4768C212.309 78.2376 211.548 79.1886 210.914 80.3298C209.773 82.2312 208.378 84.8305 206.73 88.1269C205.082 91.424 203.433 94.6568 201.785 97.8267C200.263 100.869 198.933 103.596 197.791 106.005C196.65 108.413 196.08 109.745 196.08 109.998V112.47C201.024 111.583 205.779 109.491 210.344 106.194C214.908 102.771 219.219 98.7777 223.276 94.2128C227.46 89.6486 231.391 84.8941 235.068 79.9494C238.871 74.8775 242.421 70.2497 245.718 66.0658C249.014 61.755 252.12 58.2049 255.036 55.4156C257.953 52.6262 260.679 51.2315 263.215 51.2315C263.215 55.9227 262.264 60.1701 260.362 63.9738C258.46 67.7777 256.368 71.5175 254.086 75.195C251.93 78.8718 249.902 82.6753 248 86.6059C246.098 90.4094 245.147 94.7205 245.147 99.5385C245.147 101.567 246.351 103.406 248.76 105.054C251.297 106.575 254.149 107.906 257.319 109.047C260.615 110.062 263.785 110.886 266.828 111.52C269.871 112.154 271.963 112.534 273.104 112.661V117.606C270.188 117.733 266.575 117.796 262.264 117.796C257.953 117.669 253.642 117.162 249.331 116.275C245.021 115.387 241.09 113.929 237.54 111.901C234.117 109.745 231.834 106.638 230.693 102.581C227.396 104.736 224.227 107.273 221.184 110.189C218.141 113.105 214.972 115.831 211.674 118.366C208.505 120.902 205.145 123.058 201.595 124.832C198.045 126.608 194.178 127.495 189.994 127.495C187.458 127.495 185.302 126.418 183.527 124.262C181.879 122.107 181.055 119.951 181.055 117.796ZM272.343 106.194C272.343 103.786 272.661 101.694 273.294 99.9183C274.055 98.1435 275.893 97.2561 278.809 97.2561C279.063 97.2561 279.634 97.3197 280.521 97.4463C281.536 97.4463 282.233 97.5099 282.613 97.6365C282.487 103.596 283.437 108.096 285.466 111.14C287.495 114.056 291.299 115.514 296.877 115.514C301.442 115.514 305.942 114.817 310.38 113.421C314.818 112.027 318.812 109.998 322.362 107.336C326.038 104.546 328.955 101.187 331.11 97.2561C333.392 93.3254 334.533 88.8877 334.533 83.9431C334.533 80.9005 333.456 78.7446 331.301 77.4768C329.272 76.209 326.989 75.195 324.454 74.4342C321.918 73.6733 319.572 72.8489 317.417 71.9615C315.388 70.9475 314.374 69.2357 314.374 66.8266C314.374 63.9105 316.149 61.1211 319.699 58.4585C323.249 55.796 327.434 53.4503 332.252 51.4217C337.07 49.2663 341.824 47.618 346.515 46.4769C351.333 45.209 355.01 44.5751 357.546 44.5751C357.546 48.252 356.722 50.8512 355.074 52.3726C353.552 53.8941 351.65 55.0986 349.368 55.9861C347.086 56.8736 344.74 57.7612 342.331 58.6487C340.049 59.4095 338.147 60.9309 336.626 63.2131C338.654 64.8614 340.302 66.3826 341.57 67.7777C342.965 69.0455 344.043 70.4399 344.804 71.9615C345.564 73.4831 346.072 75.195 346.325 77.0964C346.579 78.8718 346.705 81.027 346.705 83.5627C346.705 90.1555 345.247 96.1785 342.331 101.63C339.542 106.955 335.865 111.583 331.301 115.514C326.736 119.317 321.538 122.297 315.705 124.452C309.873 126.481 303.914 127.495 297.828 127.495C294.531 127.495 291.299 127.115 288.129 126.354C285.085 125.467 282.36 124.135 279.951 122.36C277.669 120.585 275.83 118.366 274.435 115.704C273.041 113.041 272.343 109.872 272.343 106.194ZM364.582 114.943C365.724 107.716 367.879 101.06 371.049 94.9736C374.219 88.8877 377.832 83.6263 381.889 79.1886C386.074 74.6244 390.574 70.8839 395.392 67.9679C400.21 65.0516 404.902 63.2131 409.466 62.4524C414.03 61.5649 418.215 61.755 422.018 63.0229C425.949 64.2908 429.118 66.8266 431.527 70.6301C431.527 73.5468 430.83 76.3356 429.436 78.9984C428.168 81.6613 426.709 84.3235 425.061 86.9864C423.54 89.6486 422.082 92.3744 420.687 95.1638C419.419 97.9533 418.785 100.933 418.785 104.103C418.785 107.399 419.483 110.062 420.877 112.09C422.399 113.992 424.998 114.943 428.675 114.943C431.717 114.943 434.633 114.499 437.423 113.612C440.34 112.724 443.256 112.28 446.172 112.28C446.679 112.28 447.503 112.344 448.644 112.47C449.912 112.47 450.736 112.47 451.116 112.47C449.595 114.626 447.63 116.465 445.221 117.986C442.812 119.507 440.276 120.839 437.613 121.98C434.951 122.994 432.161 123.755 429.245 124.262C426.456 124.769 423.857 125.023 421.448 125.023C419.165 125.023 417.137 124.516 415.362 123.502C413.587 122.487 412.065 121.156 410.797 119.507C409.53 117.859 408.515 116.021 407.754 113.992C407.121 111.837 406.803 109.745 406.803 107.716C404.902 109.872 402.81 112.154 400.527 114.563C398.372 116.845 396.026 118.937 393.491 120.839C391.082 122.741 388.419 124.325 385.503 125.593C382.714 126.861 379.797 127.495 376.754 127.495C373.458 127.495 370.605 126.291 368.196 123.882C365.787 121.346 364.582 118.366 364.582 114.943ZM377.135 109.047C377.135 110.062 377.135 111.203 377.135 112.47C377.262 113.739 378.086 114.563 379.607 114.943C382.777 114.182 386.39 112.534 390.448 109.998C394.505 107.336 398.308 104.293 401.859 100.869C405.409 97.3197 408.388 93.5792 410.797 89.6486C413.207 85.5913 414.411 81.7242 414.411 78.0474C414.411 77.7936 414.347 77.4138 414.221 76.9062C414.221 76.2726 414.221 75.8286 414.221 75.5747C409.91 75.5747 405.535 76.4628 401.098 78.2376C396.66 80.0124 392.666 82.4851 389.116 85.6549C385.567 88.6975 382.65 92.2478 380.368 96.3051C378.212 100.362 377.135 104.61 377.135 109.047ZM444.27 114.943C444.27 113.168 444.46 111.647 444.84 110.379C445.221 108.984 445.918 107.209 446.932 105.054C447.82 103.786 449.404 101.377 451.687 97.8267C454.096 94.2764 456.569 90.536 459.104 86.6059C461.766 82.6753 464.239 78.9984 466.522 75.5747C468.931 72.0251 470.579 69.5525 471.466 68.1581C472.607 66.5098 473.495 65.6221 474.128 65.4953C474.763 65.3685 475.967 65.3051 477.742 65.3051C478.883 65.3051 480.088 65.3685 481.355 65.4953C482.751 65.6221 483.638 66.5098 484.018 68.1581C482.243 72.4685 479.834 76.5894 476.791 80.5201C473.875 84.3235 470.959 88.1269 468.042 91.931C465.253 95.7344 462.781 99.6651 460.626 103.722C458.47 107.653 457.392 111.901 457.392 116.465C457.899 116.465 458.66 116.528 459.675 116.655C460.816 116.782 462.02 116.908 463.288 117.035C464.556 117.162 465.697 117.289 466.712 117.416C467.852 117.542 468.677 117.542 469.184 117.416C469.945 117.289 471.212 117.035 472.988 116.655C474.889 116.147 476.855 115.64 478.883 115.133C481.039 114.626 483.067 114.119 484.969 113.612C486.871 113.105 488.202 112.724 488.963 112.47C488.963 112.724 488.963 113.168 488.963 113.802C489.09 114.309 489.153 114.689 489.153 114.943C489.153 117.479 487.948 119.571 485.539 121.219C483.258 122.867 480.532 124.199 477.362 125.213C474.319 126.101 471.149 126.734 467.852 127.115C464.683 127.369 462.21 127.495 460.436 127.495C458.534 127.495 456.569 127.305 454.54 126.925C452.638 126.418 450.926 125.657 449.404 124.642C447.883 123.628 446.616 122.36 445.601 120.839C444.714 119.191 444.27 117.226 444.27 114.943ZM499.613 3.49534C501.261 3.49534 502.783 3.55873 504.177 3.68552C505.572 3.81231 506.777 4.12929 507.791 4.63645C508.805 5.1436 509.63 5.90434 510.263 6.91865C510.897 7.93298 511.214 9.32764 511.214 11.1027C511.214 11.8635 511.214 12.6876 511.214 13.5751C511.214 14.4626 511.088 15.3502 510.834 16.2376C510.707 16.9984 510.391 17.6957 509.883 18.3297C509.376 18.8369 508.552 19.0904 507.411 19.0904C505.636 19.0904 504.177 18.4565 503.037 17.1886C502.022 15.9207 501.261 14.4626 500.754 12.8143C500.247 11.0393 499.93 9.26428 499.803 7.48921C499.677 5.71415 499.613 4.38286 499.613 3.49534ZM536.509 58.4585C533.593 58.8388 530.233 60.6773 526.429 63.9738C522.625 67.1434 518.948 71.0741 515.399 75.7649C511.975 80.3298 509.059 85.3381 506.65 90.7898C504.241 96.1149 503.037 101.06 503.037 105.624C503.037 109.301 503.987 111.901 505.889 113.421C507.791 114.817 510.517 115.514 514.067 115.514C517.871 115.514 521.548 115.07 525.098 114.182C528.775 113.168 532.388 112.154 535.938 111.14C539.615 109.998 543.229 108.984 546.779 108.096C550.455 107.082 554.196 106.575 558 106.575C558 108.35 557.746 109.872 557.239 111.14C556.732 112.28 555.971 113.549 554.957 114.943C548.364 118.113 541.581 121.029 534.607 123.692C527.634 126.228 520.343 127.495 512.736 127.495C510.453 127.495 508.044 127.115 505.509 126.354C502.973 125.467 500.628 124.262 498.472 122.741C496.317 121.219 494.478 119.381 492.957 117.226C491.562 115.07 490.865 112.661 490.865 109.998C490.865 104.293 491.689 98.7777 493.337 93.4526C494.985 88.0003 497.268 82.8655 500.184 78.0474C503.1 73.2293 506.586 68.7916 510.644 64.7346C514.828 60.6773 519.329 57.1272 524.147 54.0843V53.8941C526.049 52.753 528.204 51.6753 530.613 50.661C533.149 49.5199 535.495 48.8859 537.65 48.7591C539.805 48.5056 541.581 49.0127 542.975 50.2806C544.497 51.4217 545.258 53.6405 545.258 56.9371C545.258 58.4585 545.13 60.4871 544.877 63.0229C544.623 65.4319 543.926 67.1434 542.785 68.1581C541.771 68.7917 540.44 69.3623 538.791 69.8693C538.031 70.1231 537.27 70.3133 536.509 70.4399V58.4585Z" fill="#EFEFEF"/>
</svg>
